The story revolves around a new high school student, Jo, who agrees to befriend an outcast, Abby, at the urging of Abby's wealthy father in exchange for paying all of Jo's costs for the college of her dreams. Jo and Abby team up to take on the school's "mean girls," the Plastics. The story becomes a high stakes battle of loyalty that ultimately comes to a head when one of our heroines finds out that her friendship has been 


Genre: Comedy
Language:English  http://www.imdb.com/title/tt1679235/
Source:DVD


Format : MPEG-4
Format profile : Base Media
Codec ID : isom
File size : 953 MiB
Duration : 1h 36mn
Overall bit rate : 1 377 Kbps
Movie name : Mean.Girls.2.2011.DvDRip.x264.Feel-Free


Video
Format settings, CABAC : Yes
Format settings, ReFrames : 4 frames
Format settings, GOP : M=4, N=32
Codec ID : avc1
Codec ID/Info : Advanced Video Coding
Duration : 1h 36mn
Bit rate mode : Variable
Bit rate : 1 000 Kbps
Width : 720 pixels
Height : 384 pixels
Display aspect ratio : 1.875
Frame rate mode : Constant
Frame rate : 23.976 fps
Color space : YUV
Chroma subsampling : 4:2:0
Bit depth : 8 bits
Scan type : Progressive
Bits/(Pixel*Frame) : 0.151
Stream size : 684 MiB (72%)
Writing library : x264

Audio
ID : 2
Format : AAC
Format/Info : Advanced Audio Codec
Format version : Version 4
Format profile : LC
Codec ID : 40
Duration : 1h 36mn
Bit rate mode : Variable
Bit rate : 384 Kbps
Channel(s) : 6 channels
Channel positions : Front: L C R, Side: L R, LFE
Sampling rate : 48.0 KHz
Stream size : 265 MiB (28%)
 
http://www.rapidhdd.com/images/534573vlcsnap-00002.png 
http://www.rapidhdd.com/images/737681vlcsnap-00006.png 
http://www.rapidhdd.com/images/179391vlcsnap-00003.png 
http://www.rapidhdd.com/images/27604vlcsnap-00004.png